<svg width="24" height="22" viewBox="0 0 24 22" fill="currentColor" xmlns="http://www.w3.org/2000/svg">
<path d="M11.9918 0H12.0158C12.9135 0 13.746 0.30075 14.4135 0.80475H14.4173C14.8788 1.15253 15.2597 1.59589 15.534 2.1045L19.9988 9.8745L20.0258 9.93675L23.4435 15.867C23.8073 16.4798 23.9985 17.1832 23.9985 17.9017C23.9985 18.465 23.8815 19.0035 23.6708 19.4918L23.6745 19.5075C23.5153 19.8697 23.3018 20.2055 23.0415 20.5035C22.7449 20.8505 22.3907 21.1438 21.9945 21.3705C21.4034 21.7139 20.7333 21.8982 20.0498 21.9053H19.983C19.1175 21.9052 18.2756 21.6226 17.5853 21.1005H17.5815C17.12 20.7527 16.7391 20.3094 16.4648 19.8008L12 12.0308L11.973 11.9685L8.53876 6.01125C8.18409 5.40169 7.99797 4.70874 7.99951 4.0035C7.99951 3.58125 8.06551 3.17175 8.18776 2.7885L8.19451 2.7645L8.20651 2.73375C8.25751 2.57775 8.32351 2.39775 8.32351 2.39775C8.48129 2.04031 8.6919 1.7086 8.94826 1.41375L9.01126 1.3395L9.02626 1.32375V1.32H9.03001L9.03826 1.308L9.04651 1.305C9.32367 1.00021 9.64653 0.740358 10.0035 0.53475C10.5946 0.191318 11.2647 0.00706881 11.9483 0H11.9918ZM4.00801 21.906H3.94876C3.26532 21.8979 2.59551 21.7137 2.00401 21.3713C1.60501 21.144 1.25401 20.8485 0.957011 20.5043C0.696711 20.2063 0.483268 19.8704 0.324011 19.5082L0.327761 19.4925C0.110293 18.9907 -0.00128317 18.4494 1.11327e-05 17.9025C1.11327e-05 17.1563 0.203261 16.4617 0.555011 15.8677L3.97276 9.9375L3.99976 9.87525L7.03876 4.59C7.11301 5.23425 7.31176 5.86725 7.63276 6.44475L7.69051 6.543L11.0655 12.3983V12.387L11.1323 12.531L11.421 13.0388L7.53376 19.8008C7.25945 20.3094 6.87851 20.7527 6.41701 21.1005H6.41326C5.72347 21.6236 4.88124 21.9063 4.01551 21.9053L4.00801 21.906Z" fill="currentColor"/>
</svg>
