<svg width="45" height="48" viewBox="0 0 45 48" fill="none" xmlns="http://www.w3.org/2000/svg">
<rect width="45" height="48" rx="22.5" fill="#0B625A" fill-opacity="0.13"/>
<path d="M13.2143 22.1429C13.2143 17.0125 17.3696 12.8572 22.5 12.8572C27.6304 12.8572 31.7857 17.0125 31.7857 22.1429V24.3192C31.2054 24.1161 30.5786 24 29.9286 24H29C27.4621 24 26.2143 25.2478 26.2143 26.7857V34.2143C26.2143 35.7523 27.4621 37 29 37H29.9286C33.0045 37 35.5 34.5045 35.5 31.4286V22.1429C35.5 14.9639 29.679 9.14288 22.5 9.14288C15.321 9.14288 9.5 14.9639 9.5 22.1429V31.4286C9.5 34.5045 11.9955 37 15.0714 37H16C17.5379 37 18.7857 35.7523 18.7857 34.2143V26.7857C18.7857 25.2478 17.5379 24 16 24H15.0714C14.4214 24 13.7946 24.1103 13.2143 24.3192V22.1429Z" fill="url(#paint0_linear_1549_2387)"/>
<defs>
<linearGradient id="paint0_linear_1549_2387" x1="22.5" y1="9.14288" x2="22.5" y2="37" gradientUnits="userSpaceOnUse">
<stop stop-color="#14876F"/>
<stop offset="1" stop-color="#03464A"/>
</linearGradient>
</defs>
</svg>
