<svg width="22" height="20" viewBox="0 0 22 20" fill="none" xmlns="http://www.w3.org/2000/svg">
<path d="M10.703 0C8.386 0 6.585 8.9407e-08 5.183 0.15C3.765 0.303 2.642 0.62 1.746 1.336C0.826 2.072 0.396 3.029 0.193 4.236C-4.47035e-08 5.388 0 6.854 0 8.682V8.865C0 10.647 4.47035e-08 11.88 0.2 12.799C0.308 13.294 0.478 13.724 0.745 14.122C1.009 14.514 1.345 14.844 1.746 15.164C2.377 15.669 3.121 15.974 4 16.164V18.75C4.00012 18.8814 4.03475 19.0105 4.10044 19.1243C4.16613 19.2381 4.26057 19.3326 4.37429 19.3984C4.48802 19.4643 4.61704 19.4991 4.74844 19.4993C4.87984 19.4996 5.009 19.4653 5.123 19.4C5.709 19.065 6.228 18.7 6.703 18.356L7.007 18.135C7.34525 17.8818 7.69073 17.6383 8.043 17.405C8.887 16.857 9.693 16.5 10.75 16.5H10.797C13.114 16.5 14.915 16.5 16.317 16.35C17.735 16.197 18.858 15.88 19.754 15.164C20.154 14.844 20.491 14.514 20.754 14.122C21.022 13.724 21.192 13.294 21.3 12.799C21.5 11.88 21.5 10.647 21.5 8.865V8.682C21.5 6.854 21.5 5.388 21.307 4.237C21.104 3.029 20.674 2.072 19.754 1.336C18.858 0.619 17.735 0.303 16.317 0.151C14.915 2.98023e-08 13.114 0 10.797 0H10.703Z" fill="currentColor"/>
</svg>
