<svg width="45" height="48" viewBox="0 0 45 48" fill="none" xmlns="http://www.w3.org/2000/svg">
<rect width="45" height="48" rx="22.5" fill="#0B625A" fill-opacity="0.13"/>
<path d="M17.625 12.625H27.375C28.237 12.625 29.0636 12.9674 29.6731 13.5769C30.2826 14.1864 30.625 15.013 30.625 15.875V31.3076C30.625 31.5231 30.5394 31.7298 30.387 31.8821C30.2347 32.0345 30.028 32.1201 29.8125 32.1201H16V32.125C16 32.556 16.1712 32.9693 16.476 33.274C16.7807 33.5788 17.194 33.75 17.625 33.75H29.8125C30.028 33.75 30.2347 33.8356 30.387 33.988C30.5394 34.1403 30.625 34.347 30.625 34.5625C30.625 34.778 30.5394 34.9847 30.387 35.137C30.2347 35.2894 30.028 35.375 29.8125 35.375H17.625C16.763 35.375 15.9364 35.0326 15.3269 34.4231C14.7174 33.8136 14.375 32.987 14.375 32.125V15.875C14.375 15.013 14.7174 14.1864 15.3269 13.5769C15.9364 12.9674 16.763 12.625 17.625 12.625ZM19.25 20.7435H20.2266L19.8675 22.375H18.4375C18.222 22.375 18.0153 22.4606 17.863 22.613C17.7106 22.7653 17.625 22.972 17.625 23.1875C17.625 23.403 17.7106 23.6097 17.863 23.762C18.0153 23.9144 18.222 24 18.4375 24H19.5067L19.276 25.0384C19.2295 25.2489 19.2684 25.4693 19.3844 25.6511C19.5004 25.8329 19.6838 25.9611 19.8943 26.0077C20.1048 26.0542 20.3252 26.0152 20.507 25.8993C20.6888 25.7833 20.8171 25.5999 20.8636 25.3894L21.1708 24H22.7454L22.513 25.0367C22.4897 25.1409 22.4872 25.2486 22.5056 25.3537C22.5239 25.4588 22.5628 25.5593 22.62 25.6494C22.6772 25.7394 22.7516 25.8174 22.8389 25.8787C22.9262 25.9401 23.0247 25.9836 23.1289 26.0069C23.233 26.0301 23.3407 26.0327 23.4458 26.0143C23.5509 25.9959 23.6514 25.957 23.7415 25.8999C23.8316 25.8427 23.9095 25.7683 23.9709 25.681C24.0322 25.5937 24.0757 25.4951 24.099 25.391L24.4094 24H25.75C25.9655 24 26.1722 23.9144 26.3245 23.762C26.4769 23.6097 26.5625 23.403 26.5625 23.1875C26.5625 22.972 26.4769 22.7653 26.3245 22.613C26.1722 22.4606 25.9655 22.375 25.75 22.375H24.7717L25.1374 20.7435H26.5625C26.778 20.7435 26.9847 20.6579 27.137 20.5055C27.2894 20.3532 27.375 20.1465 27.375 19.931C27.375 19.7155 27.2894 19.5088 27.137 19.3565C26.9847 19.2041 26.778 19.1185 26.5625 19.1185H25.4997L25.7289 18.0882C25.7521 17.9841 25.7547 17.8764 25.7363 17.7713C25.7179 17.6662 25.679 17.5657 25.6219 17.4756C25.5647 17.3856 25.4903 17.3076 25.403 17.2463C25.3157 17.1849 25.2171 17.1414 25.113 17.1181C25.0089 17.0949 24.9012 17.0923 24.796 17.1107C24.6909 17.1291 24.5905 17.168 24.5004 17.2251C24.3185 17.3406 24.1899 17.5237 24.1429 17.734L23.8341 19.1185H22.2514L22.4789 18.0866C22.5189 17.8788 22.4762 17.6637 22.36 17.4869C22.2438 17.31 22.0632 17.1855 21.8566 17.1398C21.65 17.0941 21.4337 17.1308 21.2537 17.242C21.0738 17.3533 20.9443 17.5304 20.8929 17.7356L20.5874 19.1169H19.25C19.0345 19.1169 18.8278 19.2025 18.6755 19.3549C18.5231 19.5072 18.4375 19.7139 18.4375 19.9294C18.4375 20.1449 18.5231 20.3515 18.6755 20.5039C18.8278 20.6563 19.0345 20.7435 19.25 20.7435ZM21.5299 22.375H23.1061L23.4717 20.7435H21.8922L21.5299 22.375Z" fill="url(#paint0_linear_1549_1145)"/>
<defs>
<linearGradient id="paint0_linear_1549_1145" x1="22.5" y1="12.625" x2="22.5" y2="35.375" gradientUnits="userSpaceOnUse">
<stop stop-color="#14876F"/>
<stop offset="1" stop-color="#03464A"/>
</linearGradient>
</defs>
</svg>
