<svg width="45" height="48" viewBox="0 0 45 48" fill="none" xmlns="http://www.w3.org/2000/svg">
<rect width="45" height="48" rx="22.5" fill="#0B625A" fill-opacity="0.13"/>
<path d="M22.5 28.875V24H17.625V19.125H11.125V35.375H27.375V28.875H22.5ZM20.875 25.625V28.875H17.625V25.625H20.875ZM12.75 20.75H16V24H12.75V20.75ZM16 25.625V28.875H12.75V25.625H16ZM12.75 33.75V30.5H16V33.75H12.75ZM20.875 33.75H17.625V30.5H20.875V33.75ZM25.75 33.75H22.5V30.5H25.75V33.75ZM33.55 22.05L31.4375 24.1625V19.125H33.875V12.625H27.375V19.125H29.8125V24.1625L27.7 22.05L26.5625 23.1875L30.625 27.25L34.6875 23.1875L33.55 22.05ZM29 14.25H32.25V17.5H29V14.25Z" fill="url(#paint0_linear_1549_5382)"/>
<defs>
<linearGradient id="paint0_linear_1549_5382" x1="22.9062" y1="12.625" x2="22.9063" y2="35.375" gradientUnits="userSpaceOnUse">
<stop stop-color="#14876F"/>
<stop offset="1" stop-color="#03464A"/>
</linearGradient>
</defs>
</svg>
