<svg width="25" height="27" viewBox="0 0 25 27" fill="currentColor" xmlns="http://www.w3.org/2000/svg">
<path d="M0 23.8958V10.0208C0 9.53264 0.109458 9.07014 0.328375 8.63333C0.547291 8.19653 0.848945 7.83681 1.23333 7.55417L10.4833 0.616667C11.0229 0.205556 11.6396 0 12.3333 0C13.0271 0 13.6438 0.205556 14.1833 0.616667L23.4333 7.55417C23.8188 7.83681 24.1209 8.19653 24.3398 8.63333C24.5588 9.07014 24.6677 9.53264 24.6667 10.0208V23.8958C24.6667 24.7438 24.3645 25.4699 23.7602 26.0742C23.1558 26.6785 22.4302 26.9802 21.5833 26.9792H16.9583C16.5215 26.9792 16.1556 26.8312 15.8607 26.5352C15.5657 26.2392 15.4177 25.8733 15.4167 25.4375V17.7292C15.4167 17.2924 15.2687 16.9265 14.9727 16.6315C14.6767 16.3365 14.3108 16.1885 13.875 16.1875H10.7917C10.3549 16.1875 9.98897 16.3355 9.694 16.6315C9.39903 16.9275 9.25103 17.2934 9.25 17.7292V25.4375C9.25 25.8743 9.102 26.2407 8.806 26.5367C8.51 26.8327 8.14411 26.9802 7.70833 26.9792H3.08333C2.23542 26.9792 1.50981 26.6775 0.9065 26.0742C0.303194 25.4709 0.00102778 24.7448 0 23.8958Z" fill="currentColor"/>
</svg>
