<svg width="45" height="48" viewBox="0 0 45 48" fill="none" xmlns="http://www.w3.org/2000/svg">
<rect width="45" height="48" rx="22.5" fill="#FF5C23" fill-opacity="0.21"/>
<path fill-rule="evenodd" clip-rule="evenodd" d="M16 13.1667C15.138 13.1667 14.3114 13.5091 13.7019 14.1186C13.0924 14.7281 12.75 15.5547 12.75 16.4167V31.5834C12.75 32.4453 13.0924 33.272 13.7019 33.8815C14.3114 34.4909 15.138 34.8334 16 34.8334H22.5C23.362 34.8334 24.1886 34.4909 24.7981 33.8815C25.4076 33.272 25.75 32.4453 25.75 31.5834V16.4167C25.75 15.5547 25.4076 14.7281 24.7981 14.1186C24.1886 13.5091 23.362 13.1667 22.5 13.1667H16ZM27.1508 18.9008C27.3539 18.6977 27.6294 18.5836 27.9167 18.5836C28.2039 18.5836 28.4794 18.6977 28.6826 18.9008L33.0159 23.2341C33.219 23.4373 33.3331 23.7128 33.3331 24C33.3331 24.2873 33.219 24.5628 33.0159 24.7659L28.6826 29.0993C28.4783 29.2966 28.2046 29.4058 27.9206 29.4033C27.6365 29.4009 27.3648 29.2869 27.1639 29.0861C26.9631 28.8852 26.8492 28.6135 26.8467 28.3295C26.8442 28.0454 26.9534 27.7718 27.1508 27.5674L29.6348 25.0834H20.3333C20.046 25.0834 19.7705 24.9692 19.5673 24.7661C19.3641 24.5629 19.25 24.2873 19.25 24C19.25 23.7127 19.3641 23.4372 19.5673 23.234C19.7705 23.0308 20.046 22.9167 20.3333 22.9167H29.6348L27.1508 20.4326C26.9477 20.2294 26.8336 19.9539 26.8336 19.6667C26.8336 19.3794 26.9477 19.1039 27.1508 18.9008Z" fill="#FF5C23"/>
</svg>
