<svg width="45" height="48" viewBox="0 0 45 48" fill="none" xmlns="http://www.w3.org/2000/svg">
<rect width="45" height="48" rx="22.5" fill="#0B625A" fill-opacity="0.13"/>
<path d="M22.5002 24C21.3085 24 20.2884 23.5757 19.4397 22.7271C18.5911 21.8785 18.1668 20.8583 18.1668 19.6667C18.1668 18.475 18.5911 17.4549 19.4397 16.6063C20.2884 15.7576 21.3085 15.3333 22.5002 15.3333C23.6918 15.3333 24.712 15.7576 25.5606 16.6063C26.4092 17.4549 26.8335 18.475 26.8335 19.6667C26.8335 20.8583 26.4092 21.8785 25.5606 22.7271C24.712 23.5757 23.6918 24 22.5002 24ZM13.8335 30.5V29.6333C13.8335 29.0195 13.9917 28.4554 14.308 27.9412C14.6243 27.427 15.0439 27.0341 15.5668 26.7625C16.6863 26.2028 17.8238 25.7832 18.9793 25.5037C20.1349 25.2242 21.3085 25.0841 22.5002 25.0833C23.6918 25.0826 24.8654 25.2227 26.021 25.5037C27.1766 25.7846 28.3141 26.2042 29.4335 26.7625C29.9571 27.0333 30.3771 27.4262 30.6934 27.9412C31.0097 28.4561 31.1676 29.0202 31.1668 29.6333V30.5C31.1668 31.0958 30.9549 31.6061 30.5309 32.0308C30.107 32.4554 29.5967 32.6674 29.0002 32.6667H16.0002C15.4043 32.6667 14.8944 32.4547 14.4705 32.0308C14.0466 31.6068 13.8342 31.0966 13.8335 30.5Z" fill="url(#paint0_linear_873_9847)"/>
<defs>
<linearGradient id="paint0_linear_873_9847" x1="22.5002" y1="15.3333" x2="22.5002" y2="32.6667" gradientUnits="userSpaceOnUse">
<stop stop-color="#14876F"/>
<stop offset="1" stop-color="#03464A"/>
</linearGradient>
</defs>
</svg>
