<svg width="45" height="48" viewBox="0 0 45 48" fill="none" xmlns="http://www.w3.org/2000/svg">
<rect width="45" height="48" rx="22.5" fill="#0B625A" fill-opacity="0.13"/>
<path d="M33.1328 16.028C33.0356 15.9166 32.9163 15.8266 32.7826 15.7636C32.6489 15.7006 32.5035 15.666 32.3558 15.662C30.0608 15.602 27.1568 13.148 25.2368 12.185C24.0508 11.592 23.2678 11.201 22.6798 11.098C22.5604 11.0802 22.439 11.0805 22.3198 11.099C21.7318 11.202 20.9488 11.593 19.7638 12.186C17.8438 13.148 14.9398 15.602 12.6448 15.662C12.4969 15.6665 12.3516 15.7013 12.2178 15.7642C12.0839 15.8272 11.9645 15.917 11.8668 16.028C11.6645 16.2573 11.5601 16.5566 11.5758 16.862C12.0688 26.885 15.6638 33.088 21.9718 36.693C22.1358 36.786 22.3178 36.834 22.4988 36.834C22.6798 36.834 22.8618 36.786 23.0268 36.693C29.3348 33.088 32.9288 26.885 33.4228 16.862C33.4398 16.5566 33.3356 16.2569 33.1328 16.028ZM28.1168 19.97L22.7938 27.825C22.6028 28.107 22.3028 28.294 22.0058 28.294C21.7088 28.294 21.3768 28.131 21.1678 27.922L17.4158 24.169C17.2933 24.046 17.2245 23.8795 17.2245 23.706C17.2245 23.5324 17.2933 23.3659 17.4158 23.243L18.3428 22.314C18.4662 22.1924 18.6325 22.1243 18.8058 22.1243C18.979 22.1243 19.1453 22.1924 19.2688 22.314L21.7088 24.754L25.9478 18.497C26.0458 18.3538 26.1966 18.2552 26.3671 18.2228C26.5376 18.1904 26.714 18.2268 26.8578 18.324L27.9428 19.06C28.0861 19.1579 28.1849 19.3086 28.2175 19.4791C28.2501 19.6496 28.2139 19.8261 28.1168 19.97Z" fill="url(#paint0_linear_1549_889)"/>
<defs>
<linearGradient id="paint0_linear_1549_889" x1="22.4994" y1="11.0849" x2="22.4994" y2="36.834" gradientUnits="userSpaceOnUse">
<stop stop-color="#14876F"/>
<stop offset="1" stop-color="#03464A"/>
</linearGradient>
</defs>
</svg>
